####
#
# OBJ File Generated by Meshlab
#
####
# Object chevrons.obj
#
# Vertices: 24
# Faces: 40
#
####
vn -0.460074 -0.785398 1.110721
v 0.000000 0.000000 228.600006
vn 0.000001 -4.712389 2.221443
v 76.200005 0.000000 152.400009
vn -0.460074 0.785398 1.110722
v 0.000000 3.175000 228.600006
vn -0.000001 4.712389 2.221443
v 76.200005 3.175000 152.400009
vn -2.681519 -2.356194 -1.110722
v 0.000000 0.000000 76.200005
vn -2.681515 2.356194 -1.110721
v 0.000000 3.175000 76.200005
vn 0.000001 -1.570796 -2.221443
v 76.200005 0.000000 0.000000
vn -0.000001 1.570796 -2.221443
v 76.200005 3.175000 0.000000
vn 2.681515 -2.356194 -1.110721
v 152.400009 0.000000 76.200005
vn 2.681519 2.356194 -1.110722
v 152.400009 3.175000 76.200005
vn 0.460074 -0.785398 1.110722
v 152.400009 0.000000 228.600006
vn 0.460074 0.785398 1.110721
v 152.400009 3.175000 228.600006
vn 0.460074 0.785398 1.110721
v 152.400009 31.750000 228.600006
vn -0.000001 4.712389 2.221443
v 76.200005 31.750000 152.400009
vn 0.460074 -0.785398 1.110722
v 152.400009 28.574999 228.600006
vn 0.000001 -4.712389 2.221443
v 76.200005 28.574999 152.400009
vn 2.681519 2.356194 -1.110722
v 152.400009 31.750000 76.200005
vn 2.681515 -2.356194 -1.110721
v 152.400009 28.574999 76.200005
vn 0.000002 1.570796 -2.221440
v 76.200012 31.750000 0.000000
vn 0.000001 -1.570796 -2.221443
v 76.200012 28.574999 0.000000
vn -2.681515 2.356194 -1.110721
v 0.000000 31.750000 76.200005
vn -2.681516 -2.356194 -1.110719
v 0.000000 28.574999 76.200005
vn -0.460074 0.785398 1.110722
v 0.000000 31.750000 228.600006
vn -0.460074 -0.785398 1.110721
v 0.000000 28.574999 228.600006
# 24 vertices, 0 vertices normals

f 1//1 2//2 3//3
f 3//3 2//2 4//4
f 5//5 1//1 6//6
f 6//6 1//1 3//3
f 7//7 5//5 8//8
f 8//8 5//5 6//6
f 9//9 7//7 10//10
f 10//10 7//7 8//8
f 11//11 9//9 12//12
f 12//12 9//9 10//10
f 2//2 11//11 4//4
f 4//4 11//11 12//12
f 1//1 5//5 2//2
f 2//2 5//5 7//7
f 2//2 7//7 11//11
f 11//11 7//7 9//9
f 12//12 10//10 4//4
f 4//4 10//10 8//8
f 4//4 8//8 3//3
f 3//3 8//8 6//6
f 13//13 14//14 15//15
f 15//15 14//14 16//16
f 17//17 13//13 18//18
f 18//18 13//13 15//15
f 19//19 17//17 20//20
f 20//20 17//17 18//18
f 21//21 19//19 22//22
f 22//22 19//19 20//20
f 23//23 21//21 24//24
f 24//24 21//21 22//22
f 14//14 23//23 16//16
f 16//16 23//23 24//24
f 13//13 17//17 14//14
f 14//14 17//17 19//19
f 14//14 19//19 23//23
f 23//23 19//19 21//21
f 24//24 22//22 16//16
f 16//16 22//22 20//20
f 16//16 20//20 15//15
f 15//15 20//20 18//18
# 40 faces, 0 coords texture

# End of File
